name 900006_16ik_lsw.mot
datacolumns 165
datarows 4
range 0.20000000 0.22500000
cursor 1.0 1.0 0.0
keys m_key
wrap
enforce_loops no
enforce_constraints no
calc_derivatives 0.008333
event_color 1.000000 0.000000 1.000000
endheader

                time	          calcn_r_tx	          calcn_r_ty	          calcn_r_tz	          calcn_r_r1	          calcn_r_r2	          calcn_r_r3	          calcn_l_tx	          calcn_l_ty	          calcn_l_tz	          calcn_l_r1	          calcn_l_r2	          calcn_l_r3	           pelvis_tz	           pelvis_tx	           pelvis_ty	         pelvis_tilt	         pelvis_list	     pelvis_rotation	       hip_flexion_r	     hip_adduction_r	      hip_rotation_r	        knee_angle_r	       ankle_angle_r	    subtalar_angle_r	         mtp_angle_r	       hip_flexion_l	     hip_adduction_l	      hip_rotation_l	        knee_angle_l	       ankle_angle_l	    subtalar_angle_l	         mtp_angle_l	    lumbar_extension	      lumbar_bending	     lumbar_rotation	     ground_force_px	     ground_force_py	     ground_force_pz	     ground_force_vx	     ground_force_vy	     ground_force_vz	     ground_force_px	     ground_force_py	     ground_force_pz	     ground_force_vx	     ground_force_vy	     ground_force_vz	     ground_torque_x	     ground_torque_y	     ground_torque_z	     ground_torque_x	     ground_torque_y	     ground_torque_z	           midhip_px	           midhip_py	           midhip_pz	            hip_r_px	            hip_r_py	            hip_r_pz	            hip_l_px	            hip_l_py	            hip_l_pz	           knee_r_px	           knee_r_py	           knee_r_pz	           knee_l_px	           knee_l_py	           knee_l_pz	          ankle_r_px	          ankle_r_py	          ankle_r_pz	          ankle_l_px	          ankle_l_py	          ankle_l_pz	          midasis_px	          midasis_py	          midasis_pz	           asis_r_px	           asis_r_py	           asis_r_pz	           asis_l_px	           asis_l_py	           asis_l_pz	           psis_r_px	           psis_r_py	           psis_r_pz	           psis_l_px	           psis_l_py	           psis_l_pz	     epicondLat_r_px	     epicondLat_r_py	     epicondLat_r_pz	     epicondLat_l_px	     epicondLat_l_py	     epicondLat_l_pz	     epicondMed_r_px	     epicondMed_r_py	     epicondMed_r_pz	     epicondMed_l_px	     epicondMed_l_py	     epicondMed_l_pz	   malleolusLat_r_px	   malleolusLat_r_py	   malleolusLat_r_pz	   malleolusLat_l_px	   malleolusLat_l_py	   malleolusLat_l_pz	  malleolusMedv_r_px	  malleolusMedv_r_py	  malleolusMedv_r_pz	  malleolusMedv_l_px	  malleolusMedv_l_py	  malleolusMedv_l_pz	     sternalnotch_px	     sternalnotch_py	     sternalnotch_pz	   xyphoidprocess_px	   xyphoidprocess_py	   xyphoidprocess_pz	             neck_px	             neck_py	             neck_pz	            toe_r_px	            toe_r_py	            toe_r_pz	            toe_l_px	            toe_l_py	            toe_l_pz	      thighwand_r_px	      thighwand_r_py	      thighwand_r_pz	      thighwand_l_px	      thighwand_l_py	      thighwand_l_pz	      upperleg1_r_px	      upperleg1_r_py	      upperleg1_r_pz	      upperleg1_l_px	      upperleg1_l_py	      upperleg1_l_pz	      upperleg2_r_px	      upperleg2_r_py	      upperleg2_r_pz	      upperleg2_l_px	      upperleg2_l_py	      upperleg2_l_pz	      shankwand_r_px	      shankwand_r_py	      shankwand_r_pz	      shankwand_l_px	      shankwand_l_py	      shankwand_l_pz	      lowerleg1_r_px	      lowerleg1_r_py	      lowerleg1_r_pz	      lowerleg1_l_px	      lowerleg1_l_py	      lowerleg1_l_pz	    subclavicle_r_px	    subclavicle_r_py	    subclavicle_r_pz	    subclavicle_l_px	    subclavicle_l_py	    subclavicle_l_pz	
          0.20000000	          1.06345829	          0.18302826	         -0.14130803	         -1.60504806	         -4.62070339	        -56.29359769	          1.43469223	          0.03364024	         -0.26386980	         -5.42793108	          3.48019221	          1.20171744	         -0.23665643	          1.45395581	          0.82373240	          1.80963406	          1.52414653	          0.30557605	         -2.50485430	         -4.64535895	         -5.20632514	        -48.08441026	         -7.83529943	          0.00000000	          0.00000000	         12.80712406	          5.93543293	         -4.79272197	        -13.48275033	          0.08550749	          0.00000000	          0.00000000	         -0.82180338	         -1.24103279	         -2.89213415	          1.81100073	          0.00000000	         -0.18790840	          0.00000000	          0.00000000	          0.00000000	          1.49041577	          0.00000000	         -0.26741052	        -36.11518586	        423.31961192	         10.90772878	          0.00000000	          0.00000000	          0.00000000	          0.00000000	         -0.00437408	          0.00000000	          1.42170717	          0.76247191	         -0.24278383	          1.41457869	          0.75785358	         -0.18598717	          1.42883592	          0.76709013	         -0.29958052	          1.36733017	          0.40822758	         -0.14266147	          1.44434550	          0.42014114	         -0.28540088	          1.11441357	          0.16089887	         -0.13808373	          1.48159920	          0.06603649	         -0.26643046	          1.45704671	          0.83426656	         -0.23306491	          1.45855730	          0.83129635	         -0.12164483	          1.45553647	          0.83723681	         -0.34448469	          1.28113732	          0.86455315	         -0.19966949	          1.28104034	          0.86323462	         -0.25356219	          1.37986535	          0.40778589	         -0.08316829	          1.46893166	          0.41417677	         -0.34359941	          1.39146166	          0.39850325	         -0.20860128	          1.46664141	          0.42132374	         -0.22589600	          1.10982689	          0.16619168	         -0.10124366	          1.47210431	          0.06367148	         -0.30159047	          1.11357324	          0.15705180	         -0.17180665	          1.47992194	          0.06845615	         -0.23281495	          1.44313281	          1.19122114	         -0.25021042	          1.45716601	          1.09003690	         -0.25288092	          1.33085899	          1.25609983	         -0.24906100	          1.14820886	          0.08243701	         -0.13721386	          1.57175900	          0.04662564	         -0.27815692	          1.51980556	          0.54446225	         -0.11571932	          1.54568265	          0.57692649	         -0.36846839	          1.46313605	          0.58542732	         -0.08924223	          1.51739199	          0.62264291	         -0.30607656	          1.45067983	          0.52704221	         -0.09075079	          1.51877037	          0.56496021	         -0.29479243	          1.28513293	          0.16047291	         -0.10946192	          1.46054277	          0.16007538	         -0.39684695	          1.22051496	          0.20611020	         -0.13007695	          1.46736363	          0.15568994	         -0.31767125	          1.44380329	          1.19125978	         -0.19389277	          1.44785722	          1.19198198	         -0.30015581	
          0.20833333	          1.07605361	          0.18321960	         -0.13958123	         -1.80226866	         -4.08402907	        -55.07392792	          1.43501263	          0.03354271	         -0.26330162	         -5.49009047	          3.66487407	          1.16342397	         -0.23797927	          1.46098428	          0.82475529	          1.90434080	          1.39553420	          0.43896860	         -1.64904464	         -4.52317514	         -4.70786466	        -49.08554924	         -6.51271716	          0.00000000	          0.00000000	         12.05156701	          5.93360865	         -4.84164286	        -13.29539240	          0.51224725	          0.00000000	          0.00000000	         -0.98593004	         -1.18135173	         -3.12783255	          1.81298657	          0.00000000	         -0.18768127	          0.00000000	          0.00000000	          0.00000000	          1.49190613	          0.00000000	         -0.26749393	        -34.29141367	        417.37039532	          9.67665086	          0.00000000	          0.00000000	          0.00000000	          0.00000000	          0.00086042	          0.00000000	          1.42885816	          0.76334063	         -0.24373708	          1.42193034	          0.75880737	         -0.18690848	          1.43578621	          0.76787378	         -0.30056585	          1.38098942	          0.40836171	         -0.14355181	          1.44707730	          0.42038062	         -0.28570274	          1.12748942	          0.16214609	         -0.13707886	          1.48193243	          0.06597563	         -0.26648510	          1.46411125	          0.83519938	         -0.23425803	          1.46601719	          0.83243933	         -0.12282792	          1.46220561	          0.83795940	         -0.34568774	          1.28831639	          0.86526565	         -0.20026252	          1.28822368	          0.86387963	         -0.25420096	          1.39372227	          0.40846503	         -0.08399773	          1.47169746	          0.41429378	         -0.34383498	          1.40455225	          0.39902622	         -0.20994080	          1.47091062	          0.42196721	         -0.22505295	          1.12309635	          0.16752461	         -0.10022710	          1.47209864	          0.06366590	         -0.30155554	          1.12654485	          0.15849050	         -0.17084690	          1.48066276	          0.06840624	         -0.23287176	          1.45047279	          1.19204125	         -0.25121962	          1.46436885	          1.09083625	         -0.25381142	          1.33832625	          1.25704783	         -0.25001067	          1.16266294	          0.08468253	         -0.13541426	          1.57175607	          0.04654262	         -0.27806706	          1.53098514	          0.54705170	         -0.11827656	          1.55018340	          0.57617653	         -0.36959357	          1.47404621	          0.58719733	         -0.09132533	          1.52293370	          0.62229419	         -0.30674689	          1.46264053	          0.52870813	         -0.09269678	          1.52381898	          0.56476550	         -0.29522078	          1.29819633	          0.16149359	         -0.10933215	          1.46048675	          0.16001746	         -0.39672916	          1.23387310	          0.20741263	         -0.12967001	          1.46807200	          0.15577846	         -0.31761566	          1.45113326	          1.19212132	         -0.19485915	          1.45520747	          1.19275819	         -0.30120782	
          0.21666667	          1.08915251	          0.18300631	         -0.13772789	         -1.90167078	         -3.42475864	        -53.83974417	          1.43522592	          0.03352128	         -0.26272798	         -5.52989828	          3.89188157	          1.10705922	         -0.23902489	          1.46816920	          0.82573604	          1.95250888	          1.31120681	          0.63351562	         -0.76695291	         -4.34578661	         -4.15370057	        -49.97165517	         -5.27851911	          0.00000000	          0.00000000	         11.29180703	          5.95729879	         -4.86351647	        -13.03519431	          0.89134348	          0.00000000	          0.00000000	         -1.14003614	         -1.10161141	         -3.28530216	          1.81510889	          0.00000000	         -0.18753004	          0.00000000	          0.00000000	          0.00000000	          1.49355579	          0.00000000	         -0.26759052	        -32.61832348	        412.84332927	          8.76296432	          0.00000000	          0.00000000	          0.00000000	          0.00000000	         -0.02002288	          0.00000000	          1.43595852	          0.76420112	         -0.24460404	          1.42918828	          0.75977621	         -0.18774809	          1.44272895	          0.76862593	         -0.30146031	          1.39490005	          0.40846435	         -0.14449465	          1.44974488	          0.42068658	         -0.28598799	          1.14100705	          0.16299072	         -0.13617747	          1.48223576	          0.06591298	         -0.26653966	          1.47111788	          0.83612328	         -0.23537242	          1.47334382	          0.83361261	         -0.12392511	          1.46889212	          0.83863382	         -0.34681930	          1.29544028	          0.86598093	         -0.20089552	          1.29542493	          0.86450051	         -0.25484010	          1.40756728	          0.40921086	         -0.08488638	          1.47440882	          0.41436847	         -0.34406529	          1.41780229	          0.39957788	         -0.21126753	          1.47480590	          0.42241367	         -0.22450647	          1.13675380	          0.16848726	         -0.09932658	          1.47209125	          0.06366108	         -0.30152660	          1.13999740	          0.15952186	         -0.16998949	          1.48139950	          0.06833647	         -0.23293522	          1.45774198	          1.19280503	         -0.25218357	          1.47149622	          1.09157888	         -0.25470359	          1.34567807	          1.25797329	         -0.25098011	          1.17771071	          0.08671897	         -0.13378596	          1.57174721	          0.04646675	         -0.27798474	          1.54207684	          0.54970879	         -0.12085540	          1.55466048	          0.57544778	         -0.37054281	          1.48492515	          0.58901274	         -0.09337203	          1.52838730	          0.62182848	         -0.30727162	          1.47466219	          0.53040663	         -0.09462855	          1.52871718	          0.56444465	         -0.29559749	          1.31163565	          0.16245146	         -0.10910792	          1.46047154	          0.15994855	         -0.39661617	          1.24756468	          0.20851978	         -0.12927124	          1.46881790	          0.15584633	         -0.31756247	          1.45841181	          1.19292526	         -0.19578009	          1.46246970	          1.19347894	         -0.30221657	
          0.22500000	          1.10214588	          0.18213118	         -0.13682271	         -2.04656498	         -3.12996307	        -52.61855126	          1.43563241	          0.03346401	         -0.26278817	         -5.49168940	          3.90725165	          1.01996791	         -0.23955488	          1.47459126	          0.82666463	          2.08578304	          1.21624139	          0.62920851	          0.08156382	         -4.23195188	         -3.76716314	        -50.77377169	         -4.19348874	          0.00000000	          0.00000000	         10.55588096	          5.89385605	         -4.85657000	        -12.85333003	          1.23152099	          0.00000000	          0.00000000	         -1.27475127	         -1.00336140	         -3.38769798	          1.81736060	          0.00000000	         -0.18746878	          0.00000000	          0.00000000	          0.00000000	          1.49528650	          0.00000000	         -0.26769876	        -30.90684523	        409.99848657	          8.31668294	          0.00000000	          0.00000000	          0.00000000	          0.00000000	         -0.06229150	          0.00000000	          1.44300487	          0.76504703	         -0.24537617	          1.43635546	          0.76075866	         -0.18849599	          1.44965437	          0.76933531	         -0.30225674	          1.40907695	          0.40849429	         -0.14546762	          1.45236855	          0.42110014	         -0.28628629	          1.15494635	          0.16342123	         -0.13539292	          1.48249030	          0.06585241	         -0.26658439	          1.47806716	          0.83703430	         -0.23641349	          1.48054363	          0.83481702	         -0.12495067	          1.47559070	          0.83925138	         -0.34787593	          1.30250783	          0.86669609	         -0.20156192	          1.30263937	          0.86510021	         -0.25547588	          1.42136402	          0.41000305	         -0.08581358	          1.47710662	          0.41439752	         -0.34431899	          1.43124889	          0.40008692	         -0.21249159	          1.47831502	          0.42263443	         -0.22441319	          1.15077808	          0.16906411	         -0.09855471	          1.47208905	          0.06365778	         -0.30150148	          1.15388502	          0.16008184	         -0.16923570	          1.48205069	          0.06826080	         -0.23299264	          1.46494643	          1.19353201	         -0.25311488	          1.47858057	          1.09228773	         -0.25556518	          1.35291110	          1.25886221	         -0.25198432	          1.19327417	          0.08851137	         -0.13236061	          1.57173317	          0.04639590	         -0.27791528	          1.55308624	          0.55241853	         -0.12337240	          1.55913769	          0.57473926	         -0.37135138	          1.49574200	          0.59084523	         -0.09532460	          1.53375909	          0.62128084	         -0.30768542	          1.48671404	          0.53209104	         -0.09647655	          1.53346971	          0.56399068	         -0.29598346	          1.32543968	          0.16333161	         -0.10880004	          1.46058871	          0.15987000	         -0.39653010	          1.26151565	          0.20939433	         -0.12890827	          1.46959452	          0.15589140	         -0.31752655	          1.46564249	          1.19369370	         -0.19667348	          1.46965192	          1.19416286	         -0.30318910	
